<?xml version="1.0" standalone="no"?>
<!DOCTYPE svg PUBLIC "-//W3C//DTD SVG 20010904//EN"
 "http://www.w3.org/TR/2001/REC-SVG-20010904/DTD/svg10.dtd">
<svg version="1.0" xmlns="http://www.w3.org/2000/svg"
 width="1184.000000pt" height="1280.000000pt" viewBox="0 0 1184.000000 1280.000000"
 preserveAspectRatio="xMidYMid meet">
<g transform="translate(0.000000,1280.000000) scale(0.100000,-0.100000)"
fill="#000000" stroke="none">
<path d="M2140 12793 c-178 -6 -509 -25 -675 -39 -355 -29 -800 -79 -855 -96
-78 -24 -140 -95 -166 -189 -18 -70 -18 -217 1 -297 32 -135 71 -189 240 -337
155 -135 175 -189 375 -1020 82 -338 127 -479 206 -644 123 -258 280 -437 448
-512 74 -32 428 -108 676 -143 345 -50 800 -63 1095 -32 615 67 915 157 1177
353 230 174 381 396 516 763 28 74 92 241 142 370 50 128 114 302 141 385 57
171 81 214 141 249 70 40 145 51 348 51 171 0 190 -2 244 -24 67 -27 136 -85
160 -134 8 -18 38 -109 66 -202 114 -381 206 -625 315 -840 295 -582 688 -862
1357 -966 169 -27 619 -37 860 -20 396 28 960 111 1129 167 261 85 455 307
588 670 40 110 110 384 190 744 115 512 217 722 418 858 153 104 226 278 201
482 -11 92 -58 200 -97 223 -117 69 -656 139 -1299 168 -299 13 -1217 7 -1482
-10 -845 -55 -1480 -142 -2145 -295 -169 -39 -255 -49 -440 -48 -243 0 -422
22 -940 113 -502 89 -617 108 -830 138 -593 85 -1137 122 -1720 119 -170 -1
-344 -3 -385 -5z"/>
<path d="M279 9121 c-110 -69 -200 -285 -244 -579 -102 -685 24 -1752 356
-3017 137 -524 183 -662 304 -910 389 -800 1341 -1945 2465 -2969 872 -794
1602 -1284 2240 -1503 295 -102 502 -137 805 -138 309 0 535 38 855 145 737
245 1330 715 2067 1635 279 349 847 1088 1020 1325 1060 1461 1527 2586 1657
3985 38 406 46 1121 16 1425 -39 396 -130 584 -275 568 -102 -12 -164 -114
-218 -358 -24 -106 -38 -195 -112 -730 -82 -592 -190 -955 -358 -1205 -69
-103 -189 -212 -312 -284 -61 -36 -164 -101 -229 -144 -265 -176 -337 -183
-596 -51 -183 93 -373 222 -1302 885 -306 219 -604 429 -662 468 -401 269
-721 385 -974 351 -52 -6 -153 -33 -250 -65 -212 -71 -259 -79 -390 -72 -106
6 -130 11 -427 93 -131 36 -148 39 -270 38 -114 -1 -141 -4 -215 -29 -153 -50
-258 -110 -515 -294 -333 -238 -384 -267 -709 -395 -432 -171 -495 -217 -749
-536 -127 -161 -201 -235 -358 -357 -215 -168 -373 -261 -525 -312 -511 -171
-986 145 -1359 904 -228 464 -409 1107 -455 1615 -31 349 -37 380 -88 461 -30
47 -80 79 -124 79 -13 0 -44 -13 -69 -29z m6356 -1991 c175 -12 288 -31 413
-71 384 -123 671 -407 1008 -997 48 -85 104 -194 126 -244 99 -230 128 -439
86 -618 -17 -73 -81 -201 -131 -261 -119 -146 -351 -259 -505 -247 -101 9
-133 62 -92 155 l21 47 -28 27 c-69 66 -596 363 -804 453 -299 129 -490 178
-704 180 -272 2 -422 -52 -776 -279 -96 -62 -214 -136 -262 -164 -124 -73
-132 -88 -132 -236 0 -95 -4 -127 -18 -152 -66 -123 -349 -95 -684 68 -125 61
-192 119 -233 202 -126 257 7 783 319 1255 333 504 749 759 1365 837 121 15
547 42 841 53 28 1 113 -3 190 -8z"/>
</g>
</svg>
